<svg
    width="30"
    height="30"
    viewBox="0 0 30 30"
    fill="none"
    xmlns="http://www.w3.org/2000/svg"
  >
    <path
      d="M15.2145 26.25H11.25C8.89298 26.25 7.71447 26.25 6.98223 25.5178C6.25 24.7855 6.25 23.607 6.25 21.25V8.75C6.25 6.39298 6.25 5.21447 6.98223 4.48223C7.71447 3.75 8.89298 3.75 11.25 3.75H18.75C21.107 3.75 22.2855 3.75 23.0178 4.48223C23.75 5.21447 23.75 6.39298 23.75 8.75V17.7145C23.75 18.2254 23.75 18.4809 23.6548 18.7106C23.5597 18.9403 23.3791 19.1209 23.0178 19.4822L16.9822 25.5178C16.6209 25.8791 16.4403 26.0597 16.2106 26.1548C15.9809 26.25 15.7254 26.25 15.2145 26.25Z"
      stroke="#9530AE"
    />
    <path
      d="M15 26.25V20.4167C15 19.0417 15 18.3543 15.4271 17.9271C15.8543 17.5 16.5417 17.5 17.9167 17.5H23.75"
      stroke="#9530AE"
    />
  </svg>